<?xml version="1.0" encoding="UTF-8"?>
<svg id="_0" xmlns="http://www.w3.org/2000/svg" viewBox="0 0 20 20">
	<style>
		path { fill: #000000; }
		@media (prefers-color-scheme: dark) {
		path { fill: #ffffff; }
		}
	</style>
	<path d="M10,20c5.52,0,10-4.48,10-10S15.52,0,10,0,0,4.48,0,10s4.48,10,10,10ZM12.46,7.35c.84-1.03,1.17-2.38.91-3.69-.02-.12,0-.25.06-.36.14-.24.45-.31.69-.17.34.2.65.43.96.67,3.42,2.8,3.92,7.84,1.12,11.26-.12.14-.3.21-.48.17-.27-.05-.45-.32-.4-.59.5-2.54-.58-5.14-2.74-6.58-.01,0-.03-.02-.04-.03-.21-.17-.25-.49-.07-.7ZM2.92,6.27c1.14-2.17,3.22-3.69,5.63-4.14.15-.03.29-.04.44-.04,1.36,0,2.45,1.1,2.45,2.45s-1.1,2.45-2.45,2.45H3.37c-.08,0-.16-.02-.23-.06-.24-.13-.34-.43-.21-.68ZM2.52,9h6.48c.42,0,.84.06,1.24.18,2.35.68,3.7,3.14,3.01,5.49-.68,2.35-3.14,3.7-5.49,3.01-3.6-1.05-5.99-4.47-5.74-8.21.02-.26.24-.47.5-.47Z" />
</svg>
